<?xml version="1.0" encoding="UTF-8"?>
<svg width="1200pt" height="1200pt" version="1.1" viewBox="0 0 1200 1200" xmlns="http://www.w3.org/2000/svg">
 <g>
  <path d="m628.8 108.72c7.0781 0 14.039 1.0781 20.762 2.0391"/>
  <path d="m144 687.36c-22.277 0-43.645-8.8477-59.398-24.602-15.75-15.754-24.602-37.121-24.602-59.398s8.8516-43.645 24.602-59.395c15.754-15.754 37.121-24.605 59.398-24.605s43.645 8.8516 59.398 24.605c15.75 15.75 24.602 37.117 24.602 59.395s-8.8516 43.645-24.602 59.398c-15.754 15.754-37.121 24.602-59.398 24.602zm0-144c-15.914 0-31.176 6.3203-42.426 17.574-11.254 11.254-17.574 26.512-17.574 42.426s6.3203 31.176 17.574 42.426c11.25 11.254 26.512 17.574 42.426 17.574s31.176-6.3203 42.426-17.574c11.254-11.25 17.574-26.512 17.574-42.426s-6.3203-31.172-17.574-42.426c-11.25-11.254-26.512-17.574-42.426-17.574z"/>
  <path d="m372 687.36c-22.277 0-43.645-8.8477-59.398-24.602-15.75-15.754-24.602-37.121-24.602-59.398s8.8516-43.645 24.602-59.395c15.754-15.754 37.121-24.605 59.398-24.605s43.645 8.8516 59.398 24.605c15.75 15.75 24.602 37.117 24.602 59.395s-8.8516 43.645-24.602 59.398c-15.754 15.754-37.121 24.602-59.398 24.602zm0-144c-15.914 0-31.176 6.3203-42.426 17.574-11.254 11.254-17.574 26.512-17.574 42.426s6.3203 31.176 17.574 42.426c11.25 11.254 26.512 17.574 42.426 17.574s31.176-6.3203 42.426-17.574c11.254-11.25 17.574-26.512 17.574-42.426s-6.3203-31.172-17.574-42.426c-11.25-11.254-26.512-17.574-42.426-17.574z"/>
  <path d="m600 687.36c-22.277 0-43.645-8.8477-59.398-24.602-15.75-15.754-24.602-37.121-24.602-59.398s8.8516-43.645 24.602-59.395c15.754-15.754 37.121-24.605 59.398-24.605s43.645 8.8516 59.398 24.605c15.75 15.75 24.602 37.117 24.602 59.395s-8.8516 43.645-24.602 59.398c-15.754 15.754-37.121 24.602-59.398 24.602zm0-144c-15.914 0-31.176 6.3203-42.426 17.574-11.254 11.254-17.574 26.512-17.574 42.426s6.3203 31.176 17.574 42.426c11.25 11.254 26.512 17.574 42.426 17.574s31.176-6.3203 42.426-17.574c11.254-11.25 17.574-26.512 17.574-42.426s-6.3203-31.172-17.574-42.426c-11.25-11.254-26.512-17.574-42.426-17.574z"/>
  <path d="m828 687.36c-22.277 0-43.645-8.8477-59.398-24.602-15.75-15.754-24.602-37.121-24.602-59.398s8.8516-43.645 24.602-59.395c15.754-15.754 37.121-24.605 59.398-24.605s43.645 8.8516 59.398 24.605c15.75 15.75 24.602 37.117 24.602 59.395s-8.8516 43.645-24.602 59.398c-15.754 15.754-37.121 24.602-59.398 24.602zm0-144c-15.914 0-31.176 6.3203-42.426 17.574-11.254 11.254-17.574 26.512-17.574 42.426s6.3203 31.176 17.574 42.426c11.25 11.254 26.512 17.574 42.426 17.574s31.176-6.3203 42.426-17.574c11.254-11.25 17.574-26.512 17.574-42.426s-6.3203-31.172-17.574-42.426c-11.25-11.254-26.512-17.574-42.426-17.574z"/>
  <path d="m1056 687.36c-22.277 0-43.645-8.8477-59.398-24.602-15.75-15.754-24.602-37.121-24.602-59.398s8.8516-43.645 24.602-59.395c15.754-15.754 37.121-24.605 59.398-24.605s43.645 8.8516 59.398 24.605c15.75 15.75 24.602 37.117 24.602 59.395s-8.8516 43.645-24.602 59.398c-15.754 15.754-37.121 24.602-59.398 24.602zm0-144c-15.914 0-31.176 6.3203-42.426 17.574-11.254 11.254-17.574 26.512-17.574 42.426s6.3203 31.176 17.574 42.426c11.25 11.254 26.512 17.574 42.426 17.574s31.176-6.3203 42.426-17.574c11.254-11.25 17.574-26.512 17.574-42.426s-6.3203-31.172-17.574-42.426c-11.25-11.254-26.512-17.574-42.426-17.574z"/>
  <path d="m288 603.36-36.238-20.879v14.879h-23.762v12h23.762v15z"/>
  <path d="m516 603.36-36.238-20.879v14.879h-23.762v12h23.762v15z"/>
  <path d="m744 603.36-36.238-20.879v14.879h-23.762v12h23.762v15z"/>
  <path d="m972 603.36-36.238-20.879v14.879h-23.762v12h23.762v15z"/>
  <path d="m840 507.36-6-41.398-12 9.1211c-42-45.844-134.28-117.72-306-117.72-240 0-375.12 144-376.44 145.92l8.8789 8.1602c1.3242-1.4414 132.96-142.08 367.56-142.08 166.32 0 256.2 68.762 296.88 113.16l-12 9.3594z"/>
  <path d="m1068 699.36-39 15.238 12 9.2383v0.003906c-41.809 47.016-93.094 84.645-150.49 110.41-57.398 25.773-119.6 39.098-182.51 39.105-233.4 0-329.76-174.96-330.72-177.36l-10.559 5.6406h-0.003906c20.828 35.07 47.727 66.152 79.441 91.801 73.582 60.785 166.41 93.371 261.84 91.918 64.602 0.023437 128.47-13.633 187.42-40.066 58.945-26.43 111.63-65.043 154.58-113.29l12 9.3594z"/>
  <path d="m1056 472.68c-22.004-35.66-52.867-65.012-89.586-85.199-36.715-20.188-78.035-30.523-119.93-30-165.72 0-250.68 145.56-252 147l10.441 6c0.83984-1.4414 82.199-141 241.08-141 39.766-0.49219 78.984 9.2891 113.86 28.398 34.879 19.109 64.23 46.898 85.215 80.68l-13.199 7.3203 36 21.602 0.83984-41.879z"/>
  <path d="m840 699.36-40.441 10.801 10.559 10.68c-32.641 27.48-99 68.641-204 68.641-156.84 0-228-92.641-229.2-93.602l-9.6016 7.1992c3 3.9609 75.719 98.398 238.8 98.398 109.68 0 178.92-43.441 212.64-72l10.441 10.441z"/>
 </g>
</svg>
