<?xml version="1.0" encoding="UTF-8"?>
<svg width="1200pt" height="1200pt" version="1.1" viewBox="0 0 1200 1200" xmlns="http://www.w3.org/2000/svg">
 <g>
  <path d="m593.46 165c0 70.395-57.07 127.46-127.46 127.46-70.398 0-127.46-57.07-127.46-127.46s57.066-127.46 127.46-127.46c70.395 0 127.46 57.07 127.46 127.46"/>
  <path d="m338.53 658.46c0 70.395-57.066 127.46-127.46 127.46-70.395 0-127.46-57.07-127.46-127.46 0-70.398 57.066-127.46 127.46-127.46 70.398 0 127.46 57.066 127.46 127.46"/>
  <path d="m879.09 592.78c0 70.395-57.07 127.46-127.46 127.46-70.398 0-127.46-57.066-127.46-127.46 0-70.398 57.066-127.46 127.46-127.46 70.395 0 127.46 57.066 127.46 127.46"/>
  <path d="m636.38 1035c0 70.395-57.066 127.46-127.46 127.46-70.398 0-127.46-57.07-127.46-127.46s57.066-127.46 127.46-127.46c70.395 0 127.46 57.07 127.46 127.46"/>
  <path d="m345.31 317.48c-5.4727-3.7578-12.938-2.3516-16.68 3.1094l-69.098 100.77-17.676-65.664c-1.7266-6.3945-8.3047-10.176-14.711-8.4727-6.4062 1.7266-10.199 8.3047-8.4727 14.711l24.445 90.793c0.17969 0.66016 0.55078 1.1992 0.82812 1.8008 0.22656 0.49219 0.34766 1.0312 0.63672 1.4883 0.035156 0.058594 0.085937 0.12109 0.13281 0.17969 0.43359 0.66016 0.99609 1.1641 1.5352 1.7148 0.37109 0.37109 0.67188 0.81641 1.0781 1.1289 0.14453 0.10938 0.27734 0.19141 0.42188 0.30078 0.070313 0.046875 0.097656 0.12109 0.16797 0.16797 0.55078 0.38281 1.1641 0.5625 1.7539 0.83984 0.37109 0.16797 0.69531 0.43359 1.0781 0.5625 0.085938 0.035156 0.17969 0.046875 0.27734 0.085938 1.1055 0.34766 2.2305 0.52734 3.3711 0.55078 0.097656 0 0.19141 0.046875 0.28906 0.046875 0.070313 0 0.14453-0.023438 0.21484-0.023438 0.74219-0.011718 1.4883-0.070312 2.2422-0.22656l83.809-17.473c6.4922-1.3555 10.656-7.7148 9.3008-14.195-1.3438-6.4922-7.6914-10.668-14.195-9.3008l-54.566 11.387 66.926-97.598c3.7539-5.4609 2.3633-12.926-3.1094-16.68z"/>
  <path d="m663.61 431.68c0.75781 0.15625 1.5234 0.22656 2.2695 0.23828 0.058594 0 0.13281 0.023438 0.19141 0.023438 0.12109 0 0.22656-0.046875 0.33594-0.058594 1.1172-0.023437 2.2305-0.20312 3.3125-0.53906 0.097656-0.023438 0.19141-0.046875 0.27734-0.085938 0.38281-0.13281 0.70703-0.39453 1.0781-0.5625 0 0 0.011719 0 0.023437-0.011718 0.57422-0.27734 1.1875-0.46875 1.7383-0.83984 0.070312-0.046875 0.10938-0.12109 0.16797-0.17969 0.14453-0.097656 0.28906-0.17969 0.42188-0.28906 0.40625-0.32422 0.70703-0.75781 1.0781-1.1289 0.53906-0.55078 1.1172-1.0664 1.5469-1.7266 0.046874-0.058594 0.097656-0.10938 0.13281-0.17969 0.26562-0.43359 0.38281-0.94922 0.61328-1.4141 0.28906-0.625 0.67188-1.1875 0.85156-1.8711l24.445-90.793c1.7266-6.3945-2.0742-12.984-8.4727-14.711-6.3477-1.7148-12.973 2.0742-14.711 8.4727l-17.676 65.652-69.086-100.75c-3.7422-5.4609-11.207-6.8516-16.68-3.1094-5.4727 3.7422-6.8633 11.207-3.1094 16.68l66.91 97.598-54.562-11.363c-6.5156-1.3438-12.852 2.8203-14.195 9.3008-1.3555 6.4922 2.8086 12.84 9.3008 14.195z"/>
  <path d="m433.22 758.75c-4.7656 4.6094-4.9062 12.203-0.30078 16.969l67.367 69.84c0.085938 0.097656 0.21484 0.12109 0.3125 0.21484 0.21484 0.21484 0.43359 0.39453 0.66016 0.60156 0.097656 0.085937 0.14453 0.21484 0.25391 0.28906 0.5625 0.44531 1.2227 0.67188 1.8359 0.99609 0.058594 0.035156 0.10938 0.070312 0.16797 0.10938 0.3125 0.16797 0.58984 0.43359 0.91016 0.57422 0.12109 0.046875 0.25391 0.070312 0.37109 0.12109 1.3203 0.48047 2.6992 0.75781 4.0664 0.75781 0.011718 0 0.023437 0.011719 0.035156 0.011719 0.35938 0 0.73047-0.011719 1.1055-0.046875 0.52734-0.046875 0.96094-0.32422 1.4648-0.44531 0.75781-0.16797 1.5-0.26562 2.2188-0.58984 0.19141-0.097657 0.38281-0.15625 0.57422-0.25391 0.60156-0.30078 1.0664-0.75781 1.6094-1.1523 0.44531-0.32422 0.94922-0.49219 1.3555-0.875 0.16797-0.15625 0.21484-0.37109 0.37109-0.53906 0.20313-0.21484 0.44531-0.37109 0.625-0.60156 0.035157-0.046874 0.085938-0.046874 0.12109-0.097656l54.852-69.84c4.0938-5.207 3.1797-12.758-2.0273-16.836-5.2188-4.1172-12.758-3.2148-16.848 2.0273l-36.254 46.152-40.141-432.72c-0.61328-6.6016-6.4922-11.461-13.055-10.836-6.6016 0.61328-11.461 6.457-10.836 13.055l39.77 428.65-43.633-45.227c-4.5781-4.7617-12.176-4.9062-16.953-0.3125z"/>
  <path d="m672.25 154.71c-5.7109-3.4219-13.066-1.5977-16.477 4.0781-3.4219 5.6758-1.5977 13.043 4.0781 16.477 320.62 193.4 464.2 364.23 426.76 507.74-41.52 159.13-299.86 239.84-376.08 257.27l28.934-65.629c2.6758-6.0586-0.070312-13.152-6.1445-15.816-6.0352-2.6523-13.141 0.085937-15.816 6.1445l-37.98 86.148c-0.011719 0.023438-0.011719 0.058594-0.011719 0.085938-0.25391 0.5625-0.25391 1.2227-0.42188 1.8242-0.19141 0.75781-0.43359 1.4766-0.48047 2.2422-0.011719 0.20312-0.085937 0.39453-0.097656 0.61328 0 0.023438-0.011719 0.046875-0.011719 0.085938 0 0.51562 0.23828 0.94922 0.28906 1.4531 0 0.046875 0.011719 0.085937 0.023437 0.12109 0.10938 0.76953 0.15625 1.5117 0.39453 2.2422 0.085937 0.23828 0.10937 0.45703 0.19141 0.68359 0.23828 0.57422 0.63672 1.0078 0.94922 1.5352 0.34766 0.60156 0.66016 1.2109 1.1289 1.7539 0.15625 0.19141 0.25391 0.38281 0.43359 0.5625 0.46875 0.48047 1.0664 0.76953 1.6094 1.1758 0.43359 0.3125 0.71875 0.75781 1.1992 1.0078l84.539 46.547c1.8359 1.0078 3.8164 1.4883 5.7734 1.4883 4.2344 0 8.3281-2.2422 10.523-6.2148 3.2031-5.8086 1.0781-13.105-4.7266-16.297l-55.922-30.781c92.797-22.945 338.73-106.03 384.07-268.97 43.332-155.77-103.61-336.62-436.73-537.57z"/>
 </g>
</svg>
